REM DIRINDEX 1\2,1\3,1\4,1\5
REM DIRNAME "folder01","folder02","folder03","folder04","folder05"
TITLE ""
FILE "DISC1Track15.mp3" MP3
  TRACK 01 AUDIO
    TITLE "2:cjc158_0571"
    INDEX 01 00:00:00
  TRACK 02 AUDIO
    TITLE "0:"
    INDEX 01 00:04:59
  TRACK 03 AUDIO
    TITLE "3:cjc158_0572"
    INDEX 01 00:05:06
  TRACK 04 AUDIO
    TITLE "4:cjc158_0573"
    INDEX 01 00:07:57
  TRACK 05 AUDIO
    TITLE "5:cjc158_0574"
    INDEX 01 00:10:19
  TRACK 06 AUDIO
    TITLE "0:"
    INDEX 01 00:12:39
  TRACK 07 AUDIO
    TITLE "3:cjc158_0575"
    INDEX 01 00:12:68
  TRACK 08 AUDIO
    TITLE "4:cjc158_0576"
    INDEX 01 00:14:40
  TRACK 09 AUDIO
    TITLE "5:cjc158_0577"
    INDEX 01 00:16:72
  TRACK 10 AUDIO
    TITLE "0:"
    INDEX 01 00:19:15
  TRACK 11 AUDIO
    TITLE "3:cjc158_0578"
    INDEX 01 00:19:41
  TRACK 12 AUDIO
    TITLE "4:cjc158_0579"
    INDEX 01 00:22:14
  TRACK 13 AUDIO
    TITLE "5:cjc158_0580"
    INDEX 01 00:24:58
  TRACK 14 AUDIO
    TITLE "0:"
    INDEX 01 00:27:13
  TRACK 15 AUDIO
    TITLE "3:cjc158_0581"
    INDEX 01 00:27:42
  TRACK 16 AUDIO
    TITLE "4:cjc158_0582"
    INDEX 01 00:29:04
  TRACK 17 AUDIO
    TITLE "5:cjc158_0583"
    INDEX 01 00:31:34
  TRACK 18 AUDIO
    TITLE "0:"
    INDEX 01 00:33:47
  TRACK 19 AUDIO
    TITLE "3:cjc158_0584"
    INDEX 01 00:34:01
  TRACK 20 AUDIO
    TITLE "4:cjc158_0585"
    INDEX 01 00:37:04
  TRACK 21 AUDIO
    TITLE "5:cjc158_0586"
    INDEX 01 00:39:48
  TRACK 22 AUDIO
    TITLE "0:"
    INDEX 01 00:41:74
  TRACK 23 AUDIO
    TITLE "3:cjc158_0587"
    INDEX 01 00:42:30
  TRACK 24 AUDIO
    TITLE "4:cjc158_0588"
    INDEX 01 00:44:19
  TRACK 25 AUDIO
    TITLE "5:cjc158_0589"
    INDEX 01 00:47:29
  TRACK 26 AUDIO
    TITLE "0:"
    INDEX 01 00:50:20
  TRACK 27 AUDIO
    TITLE "3:cjc158_0590"
    INDEX 01 00:50:51
  TRACK 28 AUDIO
    TITLE "4:cjc158_0591"
    INDEX 01 00:53:57
  TRACK 29 AUDIO
    TITLE "5:cjc158_0592"
    INDEX 01 00:56:05
  TRACK 30 AUDIO
    TITLE "0:"
    INDEX 01 00:58:18
  TRACK 31 AUDIO
    TITLE "3:cjc158_0593"
    INDEX 01 00:58:49
  TRACK 32 AUDIO
    TITLE "4:cjc158_0594"
    INDEX 01 01:00:60
  TRACK 33 AUDIO
    TITLE "5:cjc158_0595"
    INDEX 01 01:04:55
  TRACK 34 AUDIO
    TITLE "0:"
    INDEX 01 01:08:30
  TRACK 35 AUDIO
    TITLE "3:cjc158_0596"
    INDEX 01 01:08:61
  TRACK 36 AUDIO
    TITLE "4:cjc158_0597"
    INDEX 01 01:12:35
  TRACK 37 AUDIO
    TITLE "5:cjc158_0598"
    INDEX 01 01:15:43
  TRACK 38 AUDIO
    TITLE "0:"
    INDEX 01 01:18:46
  TRACK 39 AUDIO
    TITLE "3:cjc158_0599"
    INDEX 01 01:18:73
  TRACK 40 AUDIO
    TITLE "4:cjc158_0600"
    INDEX 01 01:20:43
  TRACK 41 AUDIO
    TITLE "5:cjc158_0601"
    INDEX 01 01:23:02
  TRACK 42 AUDIO
    TITLE "0:"
    INDEX 01 01:25:22
  TRACK 43 AUDIO
    TITLE "3:cjc158_0602"
    INDEX 01 01:25:48
  TRACK 44 AUDIO
    TITLE "4:cjc158_0603"
    INDEX 01 01:28:56
  TRACK 45 AUDIO
    TITLE "5:cjc158_0604"
    INDEX 01 01:31:19
  TRACK 46 AUDIO
    TITLE "0:"
    INDEX 01 01:33:37
  TRACK 47 AUDIO
    TITLE "3:cjc158_0605"
    INDEX 01 01:33:69
  TRACK 48 AUDIO
    TITLE "4:cjc158_0606"
    INDEX 01 01:36:59
  TRACK 49 AUDIO
    TITLE "5:cjc158_0607"
    INDEX 01 01:39:24
  TRACK 50 AUDIO
    TITLE "0:"
    INDEX 01 01:41:49
  TRACK 51 AUDIO
    TITLE "3:cjc158_0608"
    INDEX 01 01:42:05
  TRACK 52 AUDIO
    TITLE "4:cjc158_0609"
    INDEX 01 01:44:27
  TRACK 53 AUDIO
    TITLE "5:cjc158_0610"
    INDEX 01 01:47:16
  TRACK 54 AUDIO
    TITLE "0:"
    INDEX 01 01:49:70
  TRACK 55 AUDIO
    TITLE "3:cjc158_0611"
    INDEX 01 01:50:26
  TRACK 56 AUDIO
    TITLE "4:cjc158_0612"
    INDEX 01 01:53:58
  TRACK 57 AUDIO
    TITLE "5:cjc158_0613"
    INDEX 01 01:56:66
  TRACK 58 AUDIO
    TITLE "0:"
    INDEX 01 01:59:66
  TRACK 59 AUDIO
    TITLE "3:cjc158_0614"
    INDEX 01 02:00:23
  TRACK 60 AUDIO
    TITLE "4:cjc158_0615"
    INDEX 01 02:03:23
  TRACK 61 AUDIO
    TITLE "5:cjc158_0616"
    INDEX 01 02:05:71
  TRACK 62 AUDIO
    TITLE "0:"
    INDEX 01 02:08:22
  TRACK 63 AUDIO
    TITLE "3:cjc158_0617"
    INDEX 01 02:08:55
  TRACK 64 AUDIO
    TITLE "4:cjc158_0618"
    INDEX 01 02:11:46
  TRACK 65 AUDIO
    TITLE "5:cjc158_0619"
    INDEX 01 02:14:31
  TRACK 66 AUDIO
    TITLE "0:"
    INDEX 01 02:17:01
